# xmcd
#
# Track frame offsets:
#	150
#	12507
#	31035
#	48897
#	65982
#	81165
#	98972
#	110205
#	127970
#	139912
#	154795
#	172547
#
# Disc length: 2512 seconds
# Revision: 0
# Processed by: cddbd v1.5.2PL0 Copyright (c) Steve Scherf et al.
# Submitted via: dBpowerAMP V12.0
#
DISCID=9a09ce0c
DTITLE=יוני רכטר ויהודית רביץ - באופן קבוע וחד פעמי
DYEAR=2009
DGENRE=
TTITLE0=נעימת פתיחה
TTITLE1=שיר הפוך
TTITLE2=מי לאהבה
TTITLE3=דמעות של מלאכים
TTITLE4=נמלים לוחשות
TTITLE5=עטור מצחך
TTITLE6=מה עושות האיילות
TTITLE7=לילה
TTITLE8=שלוש בלילה בעיר
TTITLE9=כבו האורות
TTITLE10=עין גדי
TTITLE11=לילה טוב
EXTD=
EXTT0=
EXTT1=
EXTT2=
EXTT3=
EXTT4=
EXTT5=
EXTT6=
EXTT7=
EXTT8=
EXTT9=
EXTT10=
EXTT11=
PLAYORDER=
